<?xml version="1.0" encoding="UTF-8"?>
<svg xmlns="http://www.w3.org/2000/svg" xmlns:xlink="http://www.w3.org/1999/xlink" width="24px" height="24px" viewBox="0 0 24 24" version="1.1">
<g id="surface1">
<path style=" stroke:none;fill-rule:nonzero;fill:rgb(96.862745%,69.803922%,22.352941%);fill-opacity:1;" d="M 11.691406 1.980469 L 23.53125 1.980469 L 23.53125 14.863281 L 11.691406 14.863281 Z M 11.691406 1.980469 "/>
<path style=" stroke:none;fill-rule:nonzero;fill:rgb(16.862745%,64.705882%,96.862745%);fill-opacity:1;" d="M 11.691406 0.402344 L 23.53125 0.402344 L 23.53125 2.398438 L 11.691406 2.398438 Z M 11.691406 0.402344 "/>
<path style=" stroke:none;fill-rule:nonzero;fill:rgb(90.196078%,90.196078%,90.196078%);fill-opacity:1;" d="M 0.46875 16.660156 L 23.53125 16.660156 L 23.53125 23.128906 L 0.46875 23.128906 Z M 0.46875 16.660156 "/>
<path style=" stroke:none;fill-rule:nonzero;fill:rgb(60%,60%,60%);fill-opacity:1;" d="M 23.53125 16.191406 L 0.46875 16.191406 C 0.210938 16.191406 0 16.402344 0 16.660156 L 0 23.128906 C 0 23.386719 0.210938 23.597656 0.46875 23.597656 L 23.53125 23.597656 C 23.789062 23.597656 24 23.386719 24 23.128906 L 24 16.660156 C 24 16.402344 23.789062 16.191406 23.53125 16.191406 Z M 23.0625 18.503906 L 21.097656 18.503906 L 21.097656 17.128906 L 23.0625 17.128906 Z M 23.0625 19.128906 L 23.0625 20.660156 L 22.175781 20.660156 L 22.175781 19.128906 Z M 20.472656 22.660156 L 18.167969 22.660156 L 18.167969 21.285156 L 20.472656 21.285156 Z M 3.527344 17.128906 L 5.832031 17.128906 L 5.832031 18.503906 L 3.527344 18.503906 Z M 18.167969 18.503906 L 18.167969 17.128906 L 20.472656 17.128906 L 20.472656 18.503906 Z M 19.394531 19.128906 L 19.394531 20.660156 L 17.089844 20.660156 L 17.089844 19.128906 Z M 17.542969 18.503906 L 15.238281 18.503906 L 15.238281 17.128906 L 17.542969 17.128906 Z M 16.46875 19.128906 L 16.46875 20.660156 L 14.160156 20.660156 L 14.160156 19.128906 Z M 14.617188 18.503906 L 12.3125 18.503906 L 12.3125 17.128906 L 14.617188 17.128906 Z M 13.539062 19.128906 L 13.539062 20.660156 L 11.234375 20.660156 L 11.234375 19.128906 Z M 11.6875 18.503906 L 9.382812 18.503906 L 9.382812 17.128906 L 11.6875 17.128906 Z M 10.609375 19.128906 L 10.609375 20.660156 L 8.304688 20.660156 L 8.304688 19.128906 Z M 8.761719 18.503906 L 6.457031 18.503906 L 6.457031 17.128906 L 8.761719 17.128906 Z M 7.683594 19.128906 L 7.683594 20.660156 L 5.378906 20.660156 L 5.378906 19.128906 Z M 4.753906 19.128906 L 4.753906 20.660156 L 2.449219 20.660156 L 2.449219 19.128906 Z M 5.832031 21.285156 L 5.832031 22.660156 L 3.527344 22.660156 L 3.527344 21.285156 Z M 6.457031 21.285156 L 8.761719 21.285156 L 8.761719 22.660156 L 6.457031 22.660156 Z M 9.382812 21.285156 L 14.617188 21.285156 L 14.617188 22.660156 L 9.382812 22.660156 Z M 15.238281 21.285156 L 17.542969 21.285156 L 17.542969 22.660156 L 15.238281 22.660156 Z M 20.019531 20.660156 L 20.019531 19.128906 L 21.550781 19.128906 L 21.550781 20.660156 Z M 2.902344 17.128906 L 2.902344 18.503906 L 0.9375 18.503906 L 0.9375 17.128906 Z M 1.824219 19.128906 L 1.824219 20.660156 L 0.9375 20.660156 L 0.9375 19.128906 Z M 0.9375 21.285156 L 2.902344 21.285156 L 2.902344 22.660156 L 0.9375 22.660156 Z M 21.097656 22.660156 L 21.097656 21.285156 L 23.0625 21.285156 L 23.0625 22.660156 Z M 21.097656 22.660156 "/>
<path style=" stroke:none;fill-rule:nonzero;fill:rgb(12.941176%,59.215686%,84.705882%);fill-opacity:1;" d="M 0.46875 0.402344 L 9.546875 0.402344 L 9.546875 14.863281 L 0.46875 14.863281 Z M 0.46875 0.402344 "/>
<path style=" stroke:none;fill-rule:nonzero;fill:rgb(96.862745%,69.803922%,22.352941%);fill-opacity:1;" d="M 2.074219 2.382812 L 7.941406 2.382812 L 7.941406 3.132812 L 2.074219 3.132812 Z M 2.074219 2.382812 "/>
<path style=" stroke:none;fill-rule:nonzero;fill:rgb(96.862745%,69.803922%,22.352941%);fill-opacity:1;" d="M 2.074219 4.332031 L 5.386719 4.332031 L 5.386719 5.082031 L 2.074219 5.082031 Z M 2.074219 4.332031 "/>
<path style=" stroke:none;fill-rule:nonzero;fill:rgb(96.862745%,69.803922%,22.352941%);fill-opacity:1;" d="M 2.074219 6.28125 L 7.941406 6.28125 L 7.941406 7.03125 L 2.074219 7.03125 Z M 2.074219 6.28125 "/>
<path style=" stroke:none;fill-rule:nonzero;fill:rgb(96.862745%,69.803922%,22.352941%);fill-opacity:1;" d="M 2.074219 8.230469 L 5.386719 8.230469 L 5.386719 8.980469 L 2.074219 8.980469 Z M 2.074219 8.230469 "/>
<path style=" stroke:none;fill-rule:nonzero;fill:rgb(96.862745%,69.803922%,22.352941%);fill-opacity:1;" d="M 2.074219 10.183594 L 7.941406 10.183594 L 7.941406 10.933594 L 2.074219 10.933594 Z M 2.074219 10.183594 "/>
<path style=" stroke:none;fill-rule:nonzero;fill:rgb(96.862745%,69.803922%,22.352941%);fill-opacity:1;" d="M 2.074219 12.136719 L 5.386719 12.136719 L 5.386719 12.882812 L 2.074219 12.882812 Z M 2.074219 12.136719 "/>
<path style=" stroke:none;fill-rule:nonzero;fill:rgb(12.941176%,59.215686%,84.705882%);fill-opacity:1;" d="M 15.378906 10.707031 L 13.082031 8.410156 L 15.378906 6.117188 L 15.863281 6.605469 L 14.054688 8.410156 L 15.863281 10.222656 Z M 15.378906 10.707031 "/>
<path style=" stroke:none;fill-rule:nonzero;fill:rgb(12.941176%,59.215686%,84.705882%);fill-opacity:1;" d="M 19.84375 10.707031 L 19.355469 10.222656 L 21.167969 8.410156 L 19.355469 6.605469 L 19.84375 6.117188 L 22.140625 8.410156 Z M 19.84375 10.707031 "/>
<path style=" stroke:none;fill-rule:nonzero;fill:rgb(12.941176%,59.215686%,84.705882%);fill-opacity:1;" d="M 17.300781 11.042969 L 16.636719 10.878906 L 17.917969 5.78125 L 18.582031 5.949219 Z M 17.300781 11.042969 "/>
</g>
</svg>
