<?xml version="1.0" encoding="UTF-8"?>
<svg xmlns="http://www.w3.org/2000/svg" xmlns:xlink="http://www.w3.org/1999/xlink" width="24px" height="24px" viewBox="0 0 18 18" version="1.1">
<g id="surface1">
<path style=" stroke:none;fill-rule:nonzero;fill:rgb(25.882354%,52.156866%,95.686275%);fill-opacity:1;" d="M 2.699219 0 L 15.300781 0 C 16.792969 0 18 1.207031 18 2.699219 L 18 15.300781 C 18 16.792969 16.792969 18 15.300781 18 L 2.699219 18 C 1.207031 18 0 16.792969 0 15.300781 L 0 2.699219 C 0 1.207031 1.207031 0 2.699219 0 Z M 2.699219 0 "/>
<path style=" stroke:none;fill-rule:nonzero;fill:rgb(100%,100%,100%);fill-opacity:1;" d="M 7.488281 3.902344 L 3.726562 7.207031 L 6.152344 7.207031 C 6.328125 8.789062 7.59375 9.457031 8.894531 9.5625 C 8.648438 10.195312 8.753906 10.511719 9.140625 10.933594 C 7.628906 10.96875 5.519531 11.847656 5.519531 13.289062 C 5.660156 14.871094 7.734375 15.1875 8.753906 15.1875 C 10.089844 15.222656 11.601562 14.519531 11.917969 13.289062 C 12.058594 12.058594 11.566406 11.390625 10.828125 10.792969 C 10.019531 10.160156 9.84375 9.808594 10.089844 9.386719 C 10.617188 8.789062 11.320312 8.4375 11.460938 7.59375 C 11.53125 6.996094 11.390625 6.609375 11.25 6.082031 L 12.832031 4.746094 L 12.796875 5.308594 C 12.691406 5.378906 12.621094 5.519531 12.621094 5.625 L 12.621094 9.246094 C 12.691406 9.703125 13.394531 9.632812 13.429688 9.246094 L 13.429688 5.625 C 13.429688 5.519531 13.359375 5.378906 13.253906 5.34375 L 13.253906 4.464844 L 13.816406 3.902344 Z M 9.527344 8.859375 C 7.382812 9.210938 6.46875 5.800781 8.191406 5.378906 C 10.160156 4.992188 11.109375 8.402344 9.527344 8.859375 Z M 9.351562 11.425781 C 11.460938 11.882812 11.496094 13.640625 9.703125 14.167969 C 8.15625 14.484375 6.820312 14.027344 6.855469 13.113281 C 6.855469 12.234375 8.085938 11.425781 9.351562 11.425781 Z M 9.351562 11.425781 "/>
</g>
</svg>
