<svg fill='white' height="24"  width="24" viewBox="0 0 448 512" xmlns="http://www.w3.org/2000/svg">
<path d="m48 32c-26.5 0-48 21.5-48 48v352c0 26.5 21.5 48 48 48h352c26.5 0 48-21.5 48-48v-352c0-26.5-21.5-48-48-48zm71.56445 107.35547h183.84571c11.72137 26.24788 16.47382 54.12243 20.91796 82.07031-.8165.23162-1.63073.46599-2.44726.69922-.58767-1.6346-1.28158-3.2385-1.74805-4.9082-3.36649-12.03473-6.76024-24.06252-9.98242-36.13672-1.15898-4.34368-3.89244-6.50738-7.80273-8.63477-5.74308-3.1233-11.17058-7.14862-15.92969-11.64062-3.03723-2.86495-5.63477-4.6138-9.94336-4.56836-28.68426.30341-57.37164.33372-86.05469.59765-1.9117.019-4.27773.72429-5.63086 1.97657-5.2184 4.82887-10.11018 10.01003-16.54297 16.48828 16.96727 41.31661 25.49671 86.34885 21.83399 134.22265-8.14596-5.21561-14.4518-9.3431-14.82617-20.27148-1.87342-54.61996-18.72347-104.01444-53.92383-146.51953-.79179-.95645-1.18514-2.24353-1.76563-3.375zm-17.03125 21.02734c4.08494-.00234 8.16885.02433 12.25.14453 1.61986.0466 3.88597 1.07728 4.69532 2.375 24.41074 39.21992 43.44075 80.41006 45.90625 127.53711.0115.18659-.18213.38287-.87891 1.75196-14.58793-49.86683-40.90584-92.08763-74.75586-129.92969.176565-.61398.350725-1.22857.527344-1.84375 4.084733 0 8.170925-.03281 12.255856-.03516zm-7.119138 33.3125c.994326-.019 2.167533 1.29497 3 2.22071 19.256508 21.4202 36.733778 44.05196 47.505858 71.11914 2.05005 5.14823 3.45269 10.55481 5.1543 15.84179-22.31248-35.11267-53.362545-61.3683-87.07422-88.14843 11.670333-.4242 21.541797-.84942 31.414062-1.03321zm287.119138 18.96875c.43596-.03663.91502-.00458 1.4668.13477-73.30516 42.57208-143.24026 89.187-194.5332 159.8457-20.31067-32.30038-39.87359-63.41355-59.4375-94.52539.23921-.30778.47995-.61252.71875-.91992 1.64021 1.32085 36.52966 29.2968 52.19922 42.1289 4.36521 3.57504 7.66288 3.51166 12.20312-.17578 53.27998-43.28093 112.73305-76.0401 175.85938-102.45703 3.36971-1.40975 6.86586-2.52794 10.3125-3.7539.38274-.13556.77497-.24072 1.21093-.27735z"/>
</svg>